<?xml version="1.0" encoding="utf-8"?>
<!-- Generator: Adobe Illustrator 16.0.0, SVG Export Plug-In . SVG Version: 6.00 Build 0)  -->
<!DOCTYPE svg PUBLIC "-//W3C//DTD SVG 1.1//EN" "http://www.w3.org/Graphics/SVG/1.1/DTD/svg11.dtd">
<svg version="1.1" id="Layer_1" xmlns="http://www.w3.org/2000/svg" xmlns:xlink="http://www.w3.org/1999/xlink" x="0px" y="0px"
	 width="197px" height="346px" viewBox="0 0 197 346" enable-background="new 0 0 197 346" xml:space="preserve">
<g>
	<path d="M90.099,59.457c-3.721,0.744-8.371,2.177-19.696,6.135c-6.128,2.127-10.065,3.066-16.193,3.908
		c-3.119,0.395-2.571,0.444,4.103,0.347c6.456-0.149,9.082-0.446,16.685-2.029c10.996-2.226,16.905-2.671,19.859-1.535
		c3.83,1.436,2.354,1.979-5.963,2.327c-10.12,0.444-28.01,3.312-27.299,4.401c0.492,0.743,3.282,0.593,8.26-0.346
		c2.409-0.445,4.871-0.645,5.473-0.445c0.874,0.295,0.601,0.593-1.698,1.927c-2.517,1.438-2.625,1.584-1.367,1.731
		c0.766,0.051,3.228-0.442,5.47-1.136c5.088-1.632,12.856-2.125,20.352-1.287c5.69,0.595,12.637,2.326,12.363,3.017
		c-0.11,0.298-13.785,9.895-30.471,21.369c-16.687,11.525-30.582,21.316-30.911,21.762c-0.438,0.643-0.382,1.04,0.109,1.486
		c0.493,0.446,1.478,0.196,4.595-1.236c14.114-6.481,35.287-7.024,48.307-1.238c10.011,4.403,15.701,11.872,15.755,20.675
		c0.057,4.747-1.421,8.013-5.086,11.079c-5.418,4.599-12.255,6.679-26.698,8.212c-4.924,0.493-9.081,1.036-9.3,1.188
		c-0.383,0.344-0.767,0.344,10.833-0.199c7.001-0.348,10.996-0.792,14.824-1.682c10.341-2.375,18.107-6.976,21.117-12.563
		c1.368-2.522,1.531-3.316,1.531-8.063c0-4.996-0.054-5.341-2.024-8.904c-3.718-6.775-8.697-10.682-17.505-13.649
		c-10.122-3.464-25.878-4.106-38.022-1.485c-3.119,0.643-5.634,1.039-5.634,0.89c0.054-0.147,5.908-4.352,13.02-9.248
		c56.514-39.125,61.931-42.982,61.931-44.021c0-1.286-1.916-0.691-5.689,1.782c-3.56,2.325-3.833,2.422-4.926,1.731
		c-5.907-3.811-11.651-5.145-23.852-5.442C96.006,58.717,92.942,58.865,90.099,59.457z"/>
	<path d="M101.914,139.835c-4.54,0.838-7.058,6.179-4.65,9.841c1.093,1.682,4.432,3.464,6.457,3.464
		c2.023,0,5.359-1.782,6.454-3.464c1.697-2.572,0.931-6.378-1.695-8.555C107.057,139.932,104.213,139.389,101.914,139.835z"/>
	<path d="M125.602,152.15c-10.831,2.572-34.355,14.194-45.131,22.257c-5.636,4.255-13.404,11.18-18.601,16.668
		c-10.286,10.734-15.81,20.084-18.272,30.914c-1.314,5.838-0.986,7.169,0.546,2.13c3.392-11.132,13.24-24.487,26.808-36.357
		c6.837-5.984,9.683-8.013,18.819-13.454c20.515-12.214,38.566-16.866,48.909-12.611c3.501,1.437,6.839,4.105,8.262,6.479
		c0.599,0.987,1.257,1.779,1.474,1.779c0.767,0,1.151-2.62,0.821-6.23c-0.327-4.353-2.241-8.458-4.539-9.942
		C140.648,151.162,132.553,150.468,125.602,152.15z"/>
	<path d="M109.463,170.253c-11.487,2.721-20.732,11.029-23.797,21.467c-0.438,1.533-0.821,4.897-0.821,7.668
		c0,8.456,3.173,14.934,10.34,21.166c7.715,6.776,18.602,9.548,29.214,7.52c12.198-2.324,22.155-11.08,25.274-22.258
		c4.269-15.183-6.783-31.508-24.072-35.613C121.556,169.262,113.457,169.262,109.463,170.253z M114.989,179.65
		c0.546,0.645,0.546,1.582,0,5.243c-0.656,4.003-0.603,4.648,0.219,6.381c0.548,1.038,0.822,2.276,0.603,2.719
		c-0.328,0.792-0.438,0.792-1.368,0c-0.548-0.442-1.148-1.483-1.313-2.225c-0.219-0.989-1.257-2.029-3.226-3.314
		c-3.887-2.471-5.909-4.203-5.909-4.948c0-1.039,2.242-2.618,5.142-3.608C112.582,178.71,114.059,178.612,114.989,179.65z
		 M127.464,180.539c1.422,0.693,2.899,1.584,3.281,1.981c1.096,1.139-0.22,2.668-4.541,5.29c-2.845,1.731-3.72,2.523-4.157,3.958
		c-0.329,0.99-0.929,2.077-1.367,2.424c-1.313,0.989-1.644-0.742-0.548-2.918c0.767-1.582,0.821-2.325,0.328-4.747
		c-0.711-3.364-0.767-6.825-0.163-7.371C120.953,178.563,124.673,179.305,127.464,180.539z M101.641,187.514
		c0.657,0.396,2.297,2.179,3.72,3.957c1.86,2.375,2.955,3.314,4.103,3.562c0.875,0.149,2.025,0.693,2.518,1.187
		c0.877,0.841,0.877,0.939-0.055,1.238c-0.548,0.199-1.751-0.05-2.79-0.544c-1.641-0.794-2.244-0.843-7.003-0.251
		c-7.221,0.943-7.986,0.251-5.798-5.093c1.04-2.474,2.844-4.799,3.72-4.799C100.273,186.771,100.984,187.12,101.641,187.514z
		 M137.201,188.702c0.711,0.94,1.641,2.867,2.188,4.352c0.875,2.473,0.875,2.721,0,3.463c-0.819,0.742-1.369,0.742-6.128,0.196
		c-4.815-0.643-5.414-0.594-7.439,0.2c-1.532,0.644-2.354,0.743-2.737,0.395c-0.93-0.841-0.163-1.533,2.3-2.224
		c1.64-0.448,2.624-1.138,3.884-2.819c2.406-3.218,4.923-5.54,5.855-5.394C135.615,186.97,136.543,187.762,137.201,188.702z
		 M112.362,200.97c0.656,0.542-0.765,1.629-2.844,2.127c-1.587,0.345-2.462,1.039-3.72,2.867c-2.626,3.612-4.377,5.146-5.799,4.943
		c-1.587-0.194-4.869-5.884-4.649-8.059c0.163-1.337,0.382-1.484,2.351-1.633c1.205-0.1,3.885,0.053,5.909,0.396
		c3.173,0.493,3.885,0.493,4.924-0.198C109.793,200.62,111.762,200.374,112.362,200.97z M126.531,201.414
		c1.424,0.691,2.189,0.691,4.707,0.245c4.157-0.741,7.493-0.689,8.262,0.15c0.876,0.939-0.055,4.154-1.97,7.124
		c-2.026,3.212-3.394,2.818-7.442-2.03c-1.805-2.175-3.557-3.807-4.103-3.807c-1.151,0-3.393-1.339-3.393-2.03
		C122.593,200.374,124.673,200.523,126.531,201.414z M115.811,204.136c0.166,0.295-0.11,1.385-0.603,2.471
		c-0.875,1.686-0.929,2.327-0.327,5.342c0.875,4.949,0.765,6.333-0.438,6.923c-1.915,0.94-9.464-1.779-10.285-3.706
		c-0.382-0.939,1.914-3.168,5.746-5.443c1.529-0.937,2.844-1.927,2.844-2.226c0-0.244,0.382-1.234,0.766-2.175
		C114.333,203.539,115.099,203.146,115.811,204.136z M122.047,206.212c0.931,1.534,2.517,3.066,4.761,4.501
		c4.483,2.966,5.033,3.906,3.118,5.488c-1.862,1.584-7.771,3.266-9.084,2.67c-1.148-0.544-1.313-3.312-0.382-7.467
		c0.493-2.275,0.493-2.968-0.272-4.252c-1.041-1.831-1.151-3.711-0.165-3.463C120.352,203.837,121.279,204.924,122.047,206.212z"/>
</g>
</svg>
